<?xml version="1.0" encoding="utf-8"?>
<!-- Generator: Adobe Illustrator 18.1.1, SVG Export Plug-In . SVG Version: 6.00 Build 0)  -->
<!DOCTYPE svg PUBLIC "-//W3C//DTD SVG 1.1//EN" "http://www.w3.org/Graphics/SVG/1.1/DTD/svg11.dtd">
<svg version="1.1" id="Layer_1" xmlns="http://www.w3.org/2000/svg" xmlns:xlink="http://www.w3.org/1999/xlink" x="0px" y="0px"
	 viewBox="0 469.3 288 69.4" enable-background="new 0 469.3 288 69.4" xml:space="preserve">
<g>
	<path fill="#FFFFFF" d="M36.9,496.9c0,8.6,0,17.2,0,25.8c0,1.8-0.1,1.8-1.8,1.8c-10.8,0-21.6,0-32.4,0c-1.8,0-1.8-0.1-1.9-1.5
		c-0.2-8-0.5-16-0.6-24c-0.1-6.1-0.1-12.3,0-18.4c0-1.7,0.1-1.6,1.7-2.1c9.6-2.6,19.1-5.3,28.8-7.9c1.7-0.5,3.5-0.9,5.2-1.3
		c0.7-0.2,1.2,0.1,1.2,0.9c0,0.7,0,1.4,0,2.1C36.9,480.6,36.9,488.7,36.9,496.9z M20,498.7c1.2,0,2.5,0,3.7,0c2.6,0,5.1,0,7.7,0
		c1,0,1.2-0.4,1.2-1.3c-0.1-0.4,0.1-0.9-0.1-1.2c-1.9-5.3-4.4-9.9-10.7-11.2c-5-1-10.9,1-13.8,5.2c-2.3,3.4-3.3,6.9-2.5,11
		c0.6,3.1,2,5.8,4.1,7.9c2.8,2.7,6.4,4.2,10.5,3.7c4.3-0.5,7.6-2.5,9.9-6.1c0.2-0.4,0.9-1,0-1.5c-0.7-0.4-1.2-0.6-1.8,0.2
		c-0.4,0.7-1,1.3-1.5,2c-2.9,3.5-7,3.6-10.9,2.9c-4.5-0.8-7.8-5.2-8.4-10c-0.1-1.1,0.1-1.5,1.3-1.5C12.4,498.7,16.3,498.7,20,498.7z
		"/>
	<path fill="#FFFFFF" d="M215.9,499.5c0.2,5.8-2.3,10.4-7.2,13.4c-2.9,1.8-6.1,2.8-9.9,2c-6.3-1.3-9.9-5-12-10.6
		c-2.1-6.1-0.6-11.6,3.4-16.2c2.5-2.9,6-4.7,10.1-4.7c2.3,0,4.7,0.1,6.7,1.2c5.3,2.9,8.6,7.1,8.8,13.4
		C215.9,498.5,215.9,499,215.9,499.5z M212.3,498.6c0.2-2.5-0.9-5.1-2.9-7.5c-2.8-3.3-7.2-5-11.3-3.7c-4.4,1.3-6.7,4.5-8,8.7
		c-0.3,1.2-0.7,2.4-0.6,3.5c0.6,3.6,1.7,7.1,4.9,9.3c3.5,2.5,7,3.4,10.9,1.4C209.9,508,212.3,504.3,212.3,498.6z"/>
	<path fill="#FFFFFF" d="M44.8,499c0-4.4,0-8.8,0-13.2c0-0.6,0-1.3,0.3-1.8c0.6-1.1,2.3-0.9,2.9,0.2c0.2,0.4,0.4,0.9,0.5,1.4
		c0.1,0.6,0.3,0.6,0.8,0.4c1.3-0.7,2.6-1.6,4-2c8-2.5,15.1,2,17.3,9.8c0.1,0.4,0.1,0.8,0.1,1.2c0,6,0,12.1,0,18.1
		c0,0.9-0.3,1.4-1.1,1.9c-0.9,0.6-1.3-0.1-1.9-0.2c-0.8-0.2-0.7-0.9-0.7-1.5c0-3.3,0-6.6,0-9.8c0-2.3-0.1-4.7,0-7.1
		c0.3-5-5.9-11.5-12.8-8.6c-3.4,1.3-5.6,4.6-5.6,8.2c0,5.4-0.1,10.9,0,16.3c0,1.2-0.3,2.2-1.3,2.9c-0.9,0.7-2.1,0.2-2.4-1
		c-0.1-0.6-0.1-1.2-0.1-1.8C44.8,507.8,44.8,503.4,44.8,499z"/>
	<path fill="#FFFFFF" d="M148,483.5c3.3-0.6,5.9,1.3,8.7,2.6c0.4,0.2,0.6,0.5,0.9,0.8c0.7,0.8,0.8,2,0.2,2.8
		c-0.7,0.9-1.7,0.7-2.5,0.3c-0.6-0.3-1.2-0.7-1.8-1.2c-2.3-1.6-4.8-2-7.5-1.7c-1.9,0.3-3.7,1-4.8,2.8c-1.1,1.6-0.6,3.8,1.2,4.9
		c1.1,0.7,2.3,1.1,3.6,1.5c2.6,0.8,5.3,0.8,7.9,1.9c2,0.9,3.7,1.7,4.9,3.7c1.5,2.8,1.6,6.3-0.4,8.6c-2.6,3.1-6.1,4.7-10,4.7
		c-3.7,0-7.2-1.4-10.4-3.4c-0.5-0.3-0.9-0.8-1.3-1.3c-0.7-0.9-0.7-2.1,0-2.8c0.7-0.7,1.5-0.6,2.2,0c0.5,0.4,1,0.6,1.5,1
		c2.4,1.6,5,2.4,7.9,2.8c0.9,0.1,2-0.2,2.9-0.6c1.9-0.9,3.9-1.7,4.8-3.9c0.3-0.7,0.4-1.2,0-1.9c-1.3-2.7-3.7-3.9-6.4-4.5
		c-1.9-0.5-3.9-0.7-5.8-1.3c-1.2-0.4-2.4-0.9-3.5-1.6c-2.7-1.5-3.6-3.8-3.3-6.6c0.2-2.6,1.5-4.7,3.9-6.1
		C143,483.8,145.4,483.1,148,483.5z"/>
	<path fill="#FFFFFF" d="M227.5,498.9c0-4.7,0-9.4,0-14.1c0-0.6-0.2-1.2,0.7-1.4c1-0.2,2,0.2,2.3,1c0.3,0.7-0.5,2,0.6,2.3
		c0.4,0.1,1.2-1,1.8-1.4c4.8-2.7,9.7-2.8,14.4,0.1c3.7,2.3,5.9,5.8,6,10.3c0.1,5.6,0,11.2,0.1,16.9c0,0.9-0.2,1.6-0.9,2.1
		c-0.5,0.4-0.9,0.9-1.5,0.4c-0.5-0.4-1.3-0.4-1.3-1.4c0.1-2.1,0-4.3,0-6.4c0-3.5,0-6.9,0-10.4c0-4.9-3.4-8.2-7.1-9.5
		c-3.3-1.2-8.2,0.9-10,4.1c-1.2,2.1-2,4.4-1.9,6.9c0.1,4.8,0.1,9.6,0.1,14.4c0,2-0.5,2.8-1.7,2.7c-1-0.1-1.5-0.8-1.5-2.6
		C227.5,508.1,227.5,503.5,227.5,498.9z"/>
	<path fill="#FFFFFF" d="M108,486.5c-0.1,0.2-0.2,0.8-0.4,1.3c-2.6,6.1-5.2,12.1-7.9,18.2c-1.1,2.6-2.2,5.2-3.3,7.7
		c-0.3,0.8-0.7,1.7-1.6,1.5c-0.8-0.2-1.7-0.9-2.1-1.5c-1.2-2.3-2-4.8-3-7.2c-1.5-3.5-2.9-7.1-4.4-10.5c-1.3-3.1-2.7-6.3-4-9.4
		c-0.6-1.3,0-2.8,1.3-3.1c0.5-0.1,1.2,0.2,1.6,0.6c0.5,0.6,0.8,1.4,1.1,2.1c2.5,5.9,4.9,11.8,7.4,17.7c0.2,0.4,0.4,0.7,0.6,1.1
		c0.5,0.9,0.9,1.8,1.4,2.7c0.6-0.9,1.2-1.8,1.6-2.7c1.5-3.5,2.9-7.1,4.4-10.5c1.2-2.9,2.5-5.7,3.7-8.6c0.2-0.5,0.4-0.9,0.7-1.3
		c0.4-0.8,1.1-1.4,2-1c0.5,0.2,0.8,1,1.1,1.7C108.1,485.4,108,485.7,108,486.5z"/>
	<path fill="#FFFFFF" d="M169.9,499.3c0-4.6,0-9.2,0-13.7c0-1.7,0.7-2.3,2.1-2.2c0.9,0.1,1.5,0.6,1.5,1.5c0,0.3,0,0.6,0,0.9
		c0,8.8,0,17.5,0,26.3c0,0.9,0,1.8-0.9,2.5c-0.6,0.5-1.2,0.9-1.9,0.5c-0.4-0.3-0.8-0.9-0.9-1.4c-0.2-0.6-0.1-1.2-0.1-1.8
		C169.9,507.7,169.9,503.5,169.9,499.3z"/>
	<path fill="#FFFFFF" d="M124.6,499.4c0,4.3,0,8.5,0,12.8c0,1.1-0.2,2-1.1,2.6c-1,0.8-2.3,0.4-2.6-0.9c-0.1-0.5-0.1-1-0.1-1.5
		c0-8.8,0-17.5,0-26.2c0-0.5-0.1-1,0.1-1.5c0.1-0.8,0.7-1.2,1.5-1.3c0.7-0.1,1.5-0.1,1.7,0.9c0.2,0.9,0.5,1.7,0.5,2.6
		C124.6,491.1,124.6,495.2,124.6,499.4z"/>
	<path fill="#FFFFFF" d="M169.9,531.4c-0.2-1.7,0.3-3.3,1.8-4.7c1.3-1.3,3.1-2.1,4.8-2.1c3.4-0.1,6.9,3.6,6.8,7.1
		c-0.1,1.8-0.7,3.7-2.1,5.2c-1.4,1.5-3.1,1.8-5,1.8C171.9,538.5,169.9,536.4,169.9,531.4z M181.6,532.2c0-3.9-1.7-5.9-5.1-5.9
		c-3,0-5.3,2.5-5.3,5.6c0,2.7,2.5,5.3,5.1,5.5c1.5,0.1,2.6-0.7,3.7-1.7C181,534.6,182,533.6,181.6,532.2z"/>
	<path fill="#FFFFFF" d="M190.2,531.8c0-1.8,0-3.7,0-5.5c0-0.9,0.4-1.3,1.2-1.2c1.4,0.1,2.9-0.1,4.3,0.1c2.1,0.2,2.9,1.2,3.1,3
		c0.1,1.3,0.4,2.6-0.8,3.7c-0.2,0.2-0.3,0.9-0.1,1c1.3,1,0.9,2.4,1,3.7c0,0.3,0.2,0.6,0.3,0.9c0.2,0.5,0.5,1-0.3,1.1
		c-0.4,0-0.9-0.4-1.1-0.8c-0.2-0.3-0.1-0.8-0.2-1.2c-0.4-2.8-2.3-4-4.8-3.3c-0.2,0.1-0.6,0.6-0.6,0.9c-0.1,1.2,0,2.5-0.1,3.7
		c-0.1,0.3-0.6,0.6-0.9,0.9c-0.3-0.3-0.6-0.6-0.9-1c-0.1-0.1,0-0.2,0-0.3C190.2,535.5,190.2,533.7,190.2,531.8z M192,528.9
		c-0.1,3.1,0.3,3.6,2.9,2.9c0.8-0.2,1.5-1,2.1-1.6c0.8-0.9,0.6-2-0.2-3c-1.2-1.4-2.8-0.7-4.3-0.7c-0.2,0-0.4,0.4-0.5,0.7
		C192,527.7,192,528.3,192,528.9z"/>
	<path fill="#FFFFFF" d="M104.3,532c0,1.8,0,3.7,0,5.5c0,0.4-0.3,0.7-0.4,1c-0.4-0.2-0.8-0.2-1-0.5c-0.4-0.4-0.7-1-1-1.5
		c-1.8-2.5-3.6-5.1-5.5-7.6c-0.1-0.2-0.3-0.3-0.5-0.5c-0.1,0.2-0.1,0.4-0.2,0.6c0,2.5,0,4.9,0,7.4c0,0.6-0.1,1.2-0.1,1.8
		c0,0.1-0.3,0.2-0.5,0.2s-0.4-0.1-0.5-0.2c-0.1-0.1-0.1-0.4-0.1-0.6c0-3.9,0-7.7,0-11.7c0-0.2,0.2-0.8,0.3-0.8c0.4,0,0.8,0.1,1,0.3
		c0.4,0.3,0.7,0.7,1,1.1c1.8,2.6,3.7,5.3,5.5,7.9c0.2,0.2,0.3,0.5,0.4,0.7c0.1-0.3,0.2-0.6,0.2-0.9c0-2.3,0-4.5,0-6.7
		c0-0.6-0.1-1.2,0.1-1.8c0.1-0.3,0.4-0.5,0.7-0.7c0.2,0.2,0.4,0.4,0.4,0.7c0.1,1.5,0.1,3.1,0.1,4.6C104.3,531,104.3,531.5,104.3,532
		z"/>
	<path fill="#FFFFFF" d="M144.1,532c0-1.9,0-3.9,0-5.8c0-0.7,0.3-1.1,1.1-1.1c1.2,0,2.5,0,3.7,0c3,0.1,4.8,2.6,3.6,5.3
		c-0.7,1.5-0.7,2.7,0.1,4.1c0.4,0.7,0.3,1.7,0.4,2.6c0.1,0.4,0.1,0.9,0.1,1.3c-0.5-0.3-1.1-0.5-1.3-0.9c-0.2-0.4-0.1-1-0.1-1.5
		c-0.2-1.6-1.7-3-3.2-3c-3.3,0-2.8-0.3-2.9,2.6c-0.1,0.9,0.5,2.6-0.5,2.6c-1.4-0.1-0.6-1.7-0.7-2.7
		C144.1,534.4,144.1,533.2,144.1,532z M145.4,529.8c0.1,0.2,0.1,1.7,0.4,1.8c1,0.3,2.1,0.1,3.3-0.1c0.5-0.1,0.9-0.4,1.3-0.7
		c1.5-1.2,1.5-2.9-0.2-3.9c-0.5-0.3-1.1-0.6-1.7-0.6C144.7,526.3,145.5,526.1,145.4,529.8z"/>
	<path fill="#FFFFFF" d="M211.2,538.6c-1.7,0.4-3.2-0.5-4.7-1.3c-0.3-0.2-0.5-1-0.3-1.3c0.2-0.6,0.8-0.4,1.2,0
		c1.2,1.1,2.6,1.3,4.2,1.5c1.8,0.1,2.6-1,3.5-2.1c0.1-0.2,0.2-0.7,0.1-0.8c-0.9-0.9-1.4-1.9-2.8-2.1c-1.5-0.2-2.9-0.8-4.2-1.5
		c-1.1-0.6-2-1.8-1.8-2.9c0.2-1.3,1-2.5,2.6-3c2.8-0.9,5.1-0.6,6.6,1.2c0.2,0.2,0.1,0.7,0.2,1c-0.2,0-0.6,0.1-0.8,0
		c-0.5-0.2-0.9-0.4-1.3-0.7c-1.6-1.2-3.1-0.9-4.7,0.2c-1.1,0.8-1.3,2.1-0.2,2.9c0.7,0.4,1.5,0.6,2.2,0.9c1.1,0.4,2.3,0.6,3.4,1.1
		c2,0.9,2.5,1.8,2.3,3.4c-0.2,1.8-1.5,3.1-3.3,3.4C212.6,538.7,212,538.6,211.2,538.6z"/>
	<path fill="#FFFFFF" d="M129.4,531.8c0-1.7,0-3.5,0-5.2c0-1,0.2-1.5,1.3-1.5c1.7,0.1,3.5,0,5.2,0.1c0.6,0,1.3-0.2,1.3,0.7
		c0,0.2-0.7,0.5-1.2,0.5c-1.4,0.1-2.9,0.1-4.3,0c-0.7,0-1.2,0.3-1.1,1c0,0.1,0,0.2,0,0.3c0.1,4.2-0.6,3.4,3.3,3.5c0.5,0,1-0.1,1.5,0
		c0.4,0.1,0.8,0.4,1.2,0.6c-0.4,0.2-0.7,0.6-1.1,0.7c-0.6,0.1-1.2,0-1.8,0.1c-1,0.1-2,0.2-2.9,0.3c-0.1,1.3-0.1,2.6-0.1,3.9
		c0,0.2,0.6,0.6,0.9,0.6c1.7,0.1,3.3,0,4.9,0.1c0.2,0,0.6,0.4,0.8,0.6c-0.3,0.2-0.6,0.6-0.9,0.6c-2.1,0-4.3,0-6.4-0.1
		c-0.2,0-0.4-0.2-0.4-0.4c0-2.1,0-4.3,0-6.4C129.5,531.8,129.5,531.8,129.4,531.8z"/>
	<path fill="#FFFFFF" d="M116.9,525.2c1.5,0,3.1,0,4.6,0c0.2,0,0.5,0.4,0.5,0.6c0,0.2-0.3,0.4-0.5,0.6c-0.2,0.1-0.4,0.1-0.6,0.1
		c-3,0.2-3,0.2-3,3.1c0,2.8,0,5.7-0.1,8.5c0,0.2-0.4,0.5-0.6,0.5c-0.2,0-0.6-0.3-0.6-0.5c-0.1-2.5-0.1-5.1-0.1-7.6
		c0-1.2,0.4-2.8-0.2-3.5c-0.6-0.7-2.2-0.4-3.4-0.5c-0.2,0-0.4,0.1-0.6-0.1c-0.2-0.1-0.5-0.4-0.5-0.6c0-0.2,0.3-0.4,0.5-0.6
		c0.1-0.1,0.2-0.1,0.3-0.1C114,525.1,115.5,525.1,116.9,525.2C116.9,525.1,116.9,525.1,116.9,525.2z"/>
	<path fill="#FFFFFF" d="M266.2,510.5c0-0.7,0-1.4,0-2.1c0-1.2,0-2.3,1.7-1.2c0.2,0.2,0.9-0.4,1.3-0.4c2-0.4,3.6,0.9,3.7,2.9
		c0.1,1.4,0,2.8,0,4.3c0,0.2-0.3,0.4-0.5,0.7c-0.2-0.2-0.7-0.5-0.7-0.7c-0.1-0.8-0.1-1.6-0.1-2.5c0-0.5,0.1-1-0.1-1.5
		c-0.2-0.9-1.3-1.9-2.1-1.9c-1,0-1.4,0.7-1.7,1.5c-0.2,0.7-0.4,1.5-0.5,2.3c-0.1,0.8-0.1,1.7-0.1,2.5c0,0.1-0.3,0.4-0.4,0.3
		c-0.2-0.1-0.6-0.2-0.7-0.4c-0.1-0.2-0.1-0.6-0.1-0.9C266.2,512.3,266.2,511.4,266.2,510.5z"/>
	<path fill="#FFFFFF" d="M280.6,514.7c-2.2,0-4-1-4.5-2.3c-0.5-1.3,0.2-3.9,1.2-4.8c1.3-1.2,3.6-1.2,5.1-0.2
		c0.2,0.1,0.4,0.6,0.3,0.7c-0.1,0.2-0.5,0.4-0.7,0.4c-0.5-0.1-0.9-0.4-1.4-0.5c-1.3-0.2-2.8,0.8-3.2,2.1c-0.4,1.1,0.2,2.7,1.3,3
		c0.9,0.2,1.9-0.1,2.9-0.1c0.4,0,0.7,0.1,1,0.1c-0.2,0.4-0.3,1-0.6,1.2C281.4,514.7,280.7,514.7,280.6,514.7z"/>
	<path fill="#FFFFFF" d="M169.9,475c0.1-0.1,0.1-0.9,0.5-1.3c1-1,2.9-0.4,3.1,1.2c0.1,0.7,0,1.6-0.2,2.3c-0.2,0.7-0.6,1.5-1.7,1.3
		c-1.1-0.1-1.7-0.6-1.7-1.7C169.9,476.4,169.9,476,169.9,475z"/>
	<path fill="#FFFFFF" d="M120.8,475.1c0-0.2,0-0.7,0.1-1.2c0.3-0.9,1.4-1.3,2.2-0.8c1.7,1,1.9,3.3,0.5,4.6c-0.6,0.6-1.2,1-1.8,0.5
		c-0.5-0.4-0.7-1.1-1-1.7C120.8,476.3,120.8,475.9,120.8,475.1z"/>
	<path fill="#FFFFFF" d="M85.9,532.1c0,2,0,3.9,0,5.8c0,0.2-0.4,0.5-0.6,0.5c-0.2,0-0.6-0.3-0.6-0.5c-0.1-3.3-0.1-6.5-0.1-9.8
		c0-0.8,0-1.7,0.1-2.5c0-0.2,0.4-0.5,0.6-0.5s0.6,0.3,0.6,0.5C85.9,527.9,85.9,530,85.9,532.1z"/>
	<path fill="#FFFFFF" d="M160.7,531.5c0-2,0-3.9,0-5.8c0-0.2,0.4-0.5,0.6-0.5s0.6,0.3,0.6,0.5c0.1,3.4,0.1,6.9,0.1,10.4
		c0,0.6,0,1.2-0.1,1.8c0,0.2-0.4,0.5-0.6,0.5s-0.6-0.3-0.6-0.5C160.7,535.8,160.7,533.7,160.7,531.5z"/>
	<path fill="#FFFFFF" d="M262.6,511c-0.1,1.1-0.1,2.2-0.2,3.3c0,0.1-0.3,0.2-0.5,0.2c-0.2,0-0.4-0.1-0.5-0.2
		c-0.1-0.1-0.1-0.2-0.1-0.2c0-2.2,0-4.5,0-6.7c0-0.2,0.4-0.5,0.6-0.5s0.6,0.3,0.6,0.5c0.1,1.2,0,2.5,0,3.6
		C262.5,511,262.5,511,262.6,511z"/>
	<path fill="#FFFFFF" d="M288,514.2c-0.7,0.2-1.2,0.5-1.5,0.4c-0.3-0.1-0.7-0.8-0.6-1.1c0.1-0.3,0.8-0.6,1.1-0.6
		C287.3,513,287.6,513.6,288,514.2z"/>
	<path fill="#FFFFFF" d="M262.8,505.3c-0.4,0.3-0.7,0.5-1,0.7c-0.2-0.3-0.5-0.6-0.5-0.9c0-0.2,0.4-0.5,0.6-0.8
		C262.2,504.6,262.4,504.9,262.8,505.3z"/>
	<path fill="#FFFFFF" d="M18.8,496.9c-3.4,0-6.9,0-10.4,0c-0.6,0-1.1-0.2-0.9-0.9c1.3-4,3.3-7.4,7.7-8.5c7.4-1.9,12.4,0.9,14.8,8.5
		c0.1,0.2-0.3,0.8-0.5,0.9c-0.6,0.1-1.2,0.1-1.8,0.1C24.7,496.9,21.7,496.9,18.8,496.9L18.8,496.9z"/>
</g>
</svg>
