<?xml version="1.0" encoding="utf-8"?>
<!-- Generator: Adobe Illustrator 18.1.1, SVG Export Plug-In . SVG Version: 6.00 Build 0)  -->
<!DOCTYPE svg PUBLIC "-//W3C//DTD SVG 1.1//EN" "http://www.w3.org/Graphics/SVG/1.1/DTD/svg11.dtd">
<svg version="1.1" id="Layer_1" xmlns="http://www.w3.org/2000/svg" xmlns:xlink="http://www.w3.org/1999/xlink" x="0px" y="0px"
	 viewBox="0 0 469 113" preserveAspectRatio="xMinYMid" xml:space="preserve">
<g>
	<polygon fill="#05073D" points="0,15.6 59.6,0 59.6,89.1 0.9,88.7 	"/>
	<g>
		<path fill="#05073D" d="M137.7,91.4c0-0.4,0.3-0.8,0.8-0.8c0.4,0,0.8,0.3,0.8,0.8v20.6c0,0.4-0.3,0.8-0.8,0.8
			c-0.4,0-0.8-0.3-0.8-0.8V91.4z"/>
		<path fill="#05073D" d="M155,93.8v18.1c0,0.4-0.3,0.8-0.8,0.8c-0.4,0-0.8-0.3-0.8-0.8V91.7c-0.1-0.3,0-0.6,0.3-0.9
			c0.3-0.2,0.9-0.2,1.1,0.2l13.4,18.5v-18c0-0.4,0.3-0.8,0.8-0.8c0.4,0,0.8,0.3,0.8,0.8v20.3c0,0.4-0.3,0.8-0.8,0.8
			c-0.3,0-0.4-0.1-0.6-0.3c0,0-0.1-0.1-0.1-0.1L155,93.8z"/>
		<path fill="#05073D" d="M189.7,92.1H183c-0.4,0-0.8-0.3-0.8-0.8c0-0.4,0.3-0.8,0.8-0.8h14.8c0.4,0,0.8,0.3,0.8,0.8
			c0,0.4-0.3,0.8-0.8,0.8h-6.7v19.8c0,0.4-0.3,0.8-0.8,0.8c-0.4,0-0.8-0.3-0.8-0.8V92.1z"/>
		<path fill="#05073D" d="M210.7,91.4c0-0.4,0.3-0.8,0.8-0.8h0.1h11.3c0.4,0,0.8,0.3,0.8,0.8c0,0.4-0.3,0.8-0.8,0.8h-10.6v8.7h9.2
			c0.4,0,0.8,0.3,0.8,0.8c0,0.4-0.3,0.8-0.8,0.8h-9.2v8.7h10.6c0.4,0,0.8,0.3,0.8,0.8c0,0.4-0.3,0.8-0.8,0.8h-11.3h-0.1h-0.1
			c-0.4,0-0.7-0.3-0.7-0.8V91.4z"/>
		<path fill="#05073D" d="M246.7,107.7c0-1.6-0.8-2.6-1.8-3.3c-1-0.7-2.1-1-2.6-1.1c-0.1,0-0.1-0.1-0.2-0.1h-5.4v8.7
			c0,0.4-0.3,0.8-0.8,0.8c-0.4,0-0.8-0.3-0.8-0.8V91.4c0-0.4,0.3-0.7,0.7-0.8h0.1h0.1h6.1c3.5,0,6.3,2.8,6.3,6.3
			c0,2.5-1.5,4.7-3.6,5.7c0.1,0.1,0.2,0.1,0.3,0.2c1.5,0.8,3,2.4,3,4.9c0,1.3,0.1,2.1,0.3,2.6c0.1,0.4,0.3,0.5,0.3,0.5
			c0.3,0,0.7,0.2,0.9,0.5c0.1,0.4-0.1,0.9-0.5,1c0,0-0.2,0-0.4,0h-0.1c-0.4,0-1.1-0.3-1.4-1C246.9,110.6,246.7,109.6,246.7,107.7z
			 M242.3,92.1h-5.5v9.5h5.3h0.3c2.6-0.1,4.6-2.2,4.6-4.8C247.1,94.3,244.9,92.1,242.3,92.1z"/>
		<path fill="#05073D" d="M262,91.4c0-0.4,0.3-0.8,0.8-0.8c0.4,0,0.8,0.3,0.8,0.8v20.6c0,0.4-0.3,0.8-0.8,0.8
			c-0.4,0-0.8-0.3-0.8-0.8V91.4z"/>
		<path fill="#05073D" d="M287.4,90.3c5.9,0,10.5,5,10.6,11.2c0,6.2-4.7,11.2-10.6,11.2c-6,0-10.6-5-10.7-11.2
			C276.7,95.3,281.4,90.3,287.4,90.3z M287.4,111.1c4.9,0,9-4.3,9-9.6c0-5.5-4.1-9.6-9-9.6c-5,0-9.1,4.2-9.1,9.6
			C278.2,106.9,282.3,111.1,287.4,111.1z"/>
		<path fill="#05073D" d="M321.8,107.7c0-1.6-0.8-2.6-1.8-3.3c-1-0.7-2.1-1-2.6-1.1c-0.1,0-0.1-0.1-0.2-0.1h-5.4v8.7
			c0,0.4-0.3,0.8-0.8,0.8c-0.4,0-0.8-0.3-0.8-0.8V91.4c0-0.4,0.3-0.7,0.7-0.8h0.1h0.1h6.1c3.5,0,6.3,2.8,6.3,6.3
			c0,2.5-1.5,4.7-3.6,5.7c0.1,0.1,0.2,0.1,0.3,0.2c1.5,0.8,3,2.4,3,4.9c0,1.3,0.1,2.1,0.3,2.6c0.1,0.4,0.3,0.5,0.3,0.5
			c0.3,0,0.7,0.2,0.9,0.5c0.1,0.4-0.1,0.9-0.5,1c0,0-0.2,0-0.4,0h-0.1c-0.4,0-1.1-0.3-1.4-1C322,110.6,321.8,109.6,321.8,107.7z
			 M317.3,92.1h-5.5v9.5h5.3h0.3c2.6-0.1,4.6-2.2,4.6-4.8C322.1,94.3,320,92.1,317.3,92.1z"/>
		<path fill="#05073D" d="M335.8,108.5c0.3-0.3,0.7-0.3,1-0.1c1.6,1.3,4.4,2.9,7.3,2.8c1.9,0,3.7-0.6,4.9-1.5c1.2-0.9,1.9-2,1.9-3.3
			c0-1.3-0.6-2.2-1.8-3c-1.2-0.8-3-1.4-5.1-1.8h-0.1c-2-0.4-3.8-0.9-5.2-1.9c-1.4-0.9-2.3-2.2-2.3-3.8c0-1.7,0.9-3.1,2.3-4.1
			c1.4-1,3.2-1.6,5.3-1.6c2.9,0,5.1,1.4,6.8,2.6c0.3,0.2,0.4,0.6,0.2,1c-0.2,0.3-0.6,0.4-0.9,0.2c-1.7-1.1-3.6-2.3-6.1-2.3
			c-1.8,0-3.4,0.5-4.5,1.3c-1.1,0.8-1.7,1.9-1.7,3c0,1.1,0.5,1.9,1.6,2.7c1.1,0.8,2.7,1.3,4.7,1.7h0.1c2.2,0.4,4.2,1,5.6,2
			c1.5,0.9,2.4,2.4,2.4,4.2c0,1.8-1,3.3-2.5,4.4c-1.5,1.1-3.5,1.7-5.7,1.7c-3.4,0-6.3-1.7-8.1-3.2
			C335.6,109.3,335.6,108.8,335.8,108.5z"/>
	</g>
	<g>
		<g>
			<path fill="#05073D" d="M426.2,57.9c0-0.3,0.3-0.6,0.6-0.6c0.3,0,0.6,0.3,0.6,0.6v0.6c0,0.3-0.3,0.6-0.6,0.6
				c-0.3,0-0.6-0.3-0.6-0.6V57.9z M426.2,61.9c0-0.3,0.3-0.6,0.6-0.6c0.3,0,0.6,0.2,0.6,0.6v11c0,0.3-0.3,0.6-0.6,0.6
				c-0.3,0-0.6-0.3-0.6-0.6V61.9z"/>
			<path fill="#05073D" d="M443,66.2c0-2.1-1.7-3.7-3.7-3.7c-2.1,0-3.7,1.7-3.8,3.7v6.6v0.1c0,0.1,0,0.2-0.1,0.3
				c-0.1,0.1-0.3,0.2-0.4,0.2h-0.1c-0.2,0-0.3-0.2-0.4-0.3c0,0,0,0,0-0.1c0,0,0,0,0,0v-0.1v-6.6V66v-4.1c0-0.3,0.2-0.6,0.6-0.6
				c0.3,0,0.6,0.3,0.6,0.6v1.2c0.9-1.1,2.3-1.8,3.8-1.8c2.7,0,4.9,2.2,4.9,4.9v6.6c0,0.3-0.3,0.6-0.6,0.6c-0.3,0-0.6-0.2-0.6-0.6
				V66.2z"/>
			<path fill="#05073D" d="M449.9,67.3c0-3.4,2.8-6,6.2-6c1.4,0,2.8,0.5,3.9,1.3c0.2,0.2,0.3,0.5,0.1,0.8c-0.2,0.2-0.5,0.3-0.8,0.1
				c-0.9-0.7-2-1.1-3.1-1.1c-2.8,0-5.1,2.2-5.1,4.9c0,2.7,2.2,4.9,5.1,4.9c1.2,0,2.3-0.4,3.1-1.1c0.3-0.2,0.6-0.1,0.8,0.1
				c0.2,0.3,0.2,0.6-0.1,0.9c-1,0.8-2.4,1.3-3.8,1.3C452.7,73.4,449.9,70.7,449.9,67.3z"/>
			<path fill="#05073D" d="M467.1,70.9c0.7,0,1.2,0.5,1.2,1.2c0,0.7-0.5,1.2-1.2,1.2c-0.7,0-1.2-0.5-1.2-1.2
				C465.9,71.5,466.4,70.9,467.1,70.9z"/>
		</g>
	</g>
	<g>
		<path fill="#05073D" d="M109.1,43.7c0-8.6-6.9-15.6-15.6-15.6c-8.6,0-15.5,7-15.7,15.6v27.6v0.4c-0.1,0.4-0.2,0.8-0.5,1.1
			c-0.4,0.6-1.1,0.9-1.9,0.9h-0.6c-0.7-0.2-1.3-0.7-1.7-1.3c-0.1-0.1-0.1-0.2-0.1-0.3c0-0.1-0.1-0.2-0.1-0.2v-0.6V43.7v-0.8V25.6
			c0-1.3,1-2.5,2.5-2.5c1.3,0,2.4,1.1,2.4,2.5v4.9c3.7-4.5,9.4-7.4,15.7-7.4c11.4,0,20.6,9.3,20.6,20.6v27.6c0,1.5-1.1,2.5-2.5,2.5
			c-1.3,0-2.5-1-2.5-2.5V43.7z"/>
		<path fill="#05073D" d="M152.6,73.4c-0.3-0.3-0.6-0.6-0.8-1.1l-19.1-45.4c-0.5-1.2,0.1-2.7,1.2-3.2c1.2-0.5,2.8,0.1,3.2,1.3
			L154,65l16.9-40c0.4-1.2,2-1.9,3.2-1.3c1.2,0.5,1.8,2,1.2,3.2l-19,45c-0.1,0.4-0.3,0.8-0.6,1.2c-0.4,0.5-1.1,0.7-1.7,0.7
			c-0.3,0-0.5,0-0.8-0.1c-0.1,0-0.1,0-0.2-0.1C152.9,73.6,152.8,73.5,152.6,73.4z"/>
		<path fill="#05073D" d="M196.7,8.9c0-1.3,1.1-2.5,2.5-2.5c1.5,0,2.6,1.1,2.6,2.5v2.4c0,1.5-1.1,2.7-2.6,2.7
			c-1.3,0-2.5-1.2-2.5-2.7V8.9z M196.7,25.5c0-1.5,1.1-2.5,2.5-2.5c1.5,0,2.6,1,2.6,2.5v45.8c0,1.3-1.1,2.5-2.6,2.5
			c-1.3,0-2.5-1.1-2.5-2.5V25.5z"/>
		<path fill="#05073D" d="M222.2,63.2c0.8-1,2.4-1.2,3.5-0.3c3.5,2.6,9.1,5.9,15.5,5.9c3.9,0,7.4-1.2,9.6-3.1
			c2.5-1.7,3.8-3.9,3.8-6.2c-0.1-2.4-1-4-3.6-6.2c-2.2-1.7-5.8-2.9-10.8-3.7l-0.2-0.1c-4.6-0.8-8.6-1.9-11.5-3.9
			c-3.2-1.9-5.5-5.2-5.5-9.1c0-4,2.3-7.6,5.5-9.9c3-2.1,7.3-3.4,12.4-3.4c6.5,0,11.2,3,15.1,5.5c1.1,0.8,1.5,2.4,0.7,3.5
			c-0.7,1.1-2.3,1.5-3.4,0.7c-3.7-2.5-7.5-5.1-12.4-5.1c-4.1,0-7.5,1.1-9.6,2.9c-2.1,1.7-3.2,3.7-3.2,5.8c0,2.1,0.9,3.5,2.9,5.1
			c2.3,1.6,5.7,2.8,10.4,3.5h0.2c4.9,0.7,8.8,2.2,12.3,4.1c3.3,2.2,5.7,6.1,5.7,10.4c0,4.2-2.4,7.7-5.8,10.3c-3.5,2.6-7.7,4-12.6,4
			c-8.2-0.1-14.6-3.9-18.8-7.3C221.5,65.6,221.4,64.3,222.2,63.2z"/>
		<path fill="#05073D" d="M276.8,8.9c0-1.3,1.1-2.5,2.5-2.5c1.5,0,2.6,1.1,2.6,2.5v2.4c0,1.5-1.1,2.7-2.6,2.7
			c-1.3,0-2.5-1.2-2.5-2.7V8.9z M276.8,25.5c0-1.5,1.1-2.5,2.5-2.5c1.5,0,2.6,1,2.6,2.5v45.8c0,1.3-1.1,2.5-2.6,2.5
			c-1.3,0-2.5-1.1-2.5-2.5V25.5z"/>
		<path fill="#05073D" d="M327.5,23c13.4,0,24,11.6,24,25.4c0,13.8-10.7,25.4-24,25.4c-13.3,0-24-11.6-24-25.4
			C303.4,34.6,314.2,23,327.5,23z M327.5,68.8c10.4,0,19.1-9.1,19.1-20.4s-8.7-20.5-19.1-20.5c-10.4,0-19.1,9.2-19.1,20.5
			S317.1,68.8,327.5,68.8z"/>
		<path fill="#05073D" d="M406.8,43.7c0-8.6-6.9-15.6-15.6-15.6c-8.6,0-15.5,7-15.7,15.6v27.6v0.4c-0.1,0.4-0.2,0.8-0.5,1.1
			c-0.4,0.6-1.1,0.9-1.9,0.9h-0.6c-0.7-0.2-1.3-0.7-1.7-1.3c-0.1-0.1-0.1-0.2-0.1-0.3c0-0.1-0.1-0.2-0.1-0.2v-0.6V43.7v-0.8V25.6
			c0-1.3,1-2.5,2.5-2.5c1.3,0,2.4,1.1,2.4,2.5v4.9c3.7-4.5,9.4-7.4,15.7-7.4c11.4,0,20.6,9.3,20.6,20.6v27.6c0,1.5-1.1,2.5-2.5,2.5
			c-1.3,0-2.5-1-2.5-2.5V43.7z"/>
	</g>
	<g>
		<path fill="#FFFFFF" d="M7.5,47.7c0-13.1,10.2-23.6,22.9-23.6C42.4,24.1,52,33.7,53,46v0.1v0.3c0,1.2-1.1,2.1-2.3,2.1H12.1
			c0.5,10.3,8.6,18.1,18.3,18.1c6.2,0,12-3.3,15.2-8.6c0.7-1.2,2.1-1.3,3.1-0.8c1.1,0.8,1.4,2.1,0.8,3.3c-4,6.4-11,10.7-19,10.7
			C17.6,71.2,7.5,60.6,7.5,47.7z M12.4,44H48c-1.5-8.8-9-15.3-17.7-15.3C21.5,28.7,14.1,35,12.4,44z"/>
	</g>
</g>
</svg>
