<svg xmlns="http://www.w3.org/2000/svg" viewBox="-135 498 16 14" enable-background="new -135 498 16 14"><title>Menu Icon</title><desc>Created with Sketch.</desc><g fill="#fff"><path d="M-133.1 501.752h-.1c-1 0-1.8-.7-1.8-1.6 0-.9.8-1.6 1.8-1.6h12v.1c.7.2 1.3.8 1.3 1.5s-.5 1.3-1.3 1.5v.1h-11.9z"/><path d="M-133.1 506.552h-.1c-1 0-1.8-.7-1.8-1.6 0-.9.8-1.6 1.8-1.6h12v.1c.7.2 1.3.8 1.3 1.5s-.5 1.3-1.3 1.5v.1h-11.9z"/><path d="M-133.1 511.452h-.1c-1 0-1.8-.7-1.8-1.6 0-.9.8-1.6 1.8-1.6h12v.1c.7.2 1.3.8 1.3 1.5s-.5 1.3-1.3 1.5v.1h-11.9z"/></g></svg>