<svg xmlns="http://www.w3.org/2000/svg" viewBox="0 0 468.4 112.7" enable-background="new 0 0 468.4 112.7"><path fill="#fff" d="M0 15.6L59.6 0v89.1L.9 88.7z"/><g fill="#fff"><path d="M137.7 91.4c0-.4.3-.8.8-.8.4 0 .8.3.8.8V112c0 .4-.3.8-.8.8-.4 0-.8-.3-.8-.8V91.4zM155 93.8v18.1c0 .4-.3.8-.8.8-.4 0-.8-.3-.8-.8V91.7c-.1-.3 0-.6.3-.9.3-.2.9-.2 1.1.2l13.4 18.5v-18c0-.4.3-.8.8-.8.4 0 .8.3.8.8v20.3c0 .4-.3.8-.8.8-.3 0-.4-.1-.6-.3l-.1-.1L155 93.8zM189.7 92.1H183c-.4 0-.8-.3-.8-.8 0-.4.3-.8.8-.8h14.8c.4 0 .8.3.8.8 0 .4-.3.8-.8.8h-6.7v19.8c0 .4-.3.8-.8.8-.4 0-.8-.3-.8-.8V92.1zM210.7 91.4c0-.4.3-.8.8-.8h11.4c.4 0 .8.3.8.8 0 .4-.3.8-.8.8h-10.6v8.7h9.2c.4 0 .8.3.8.8 0 .4-.3.8-.8.8h-9.2v8.7h10.6c.4 0 .8.3.8.8 0 .4-.3.8-.8.8h-11.5c-.4 0-.7-.3-.7-.8V91.4zM246.7 107.7c0-1.6-.8-2.6-1.8-3.3-1-.7-2.1-1-2.6-1.1-.1 0-.1-.1-.2-.1h-5.4v8.7c0 .4-.3.8-.8.8-.4 0-.8-.3-.8-.8V91.4c0-.4.3-.7.7-.8h6.3c3.5 0 6.3 2.8 6.3 6.3 0 2.5-1.5 4.7-3.6 5.7.1.1.2.1.3.2 1.5.8 3 2.4 3 4.9 0 1.3.1 2.1.3 2.6.1.4.3.5.3.5.3 0 .7.2.9.5.1.4-.1.9-.5 1h-.5c-.4 0-1.1-.3-1.4-1-.3-.7-.5-1.7-.5-3.6zm-4.4-15.6h-5.5v9.5h5.6c2.6-.1 4.6-2.2 4.6-4.8.1-2.5-2.1-4.7-4.7-4.7zM262 91.4c0-.4.3-.8.8-.8.4 0 .8.3.8.8V112c0 .4-.3.8-.8.8-.4 0-.8-.3-.8-.8V91.4zM287.4 90.3c5.9 0 10.5 5 10.6 11.2 0 6.2-4.7 11.2-10.6 11.2-6 0-10.6-5-10.7-11.2 0-6.2 4.7-11.2 10.7-11.2zm0 20.8c4.9 0 9-4.3 9-9.6 0-5.5-4.1-9.6-9-9.6-5 0-9.1 4.2-9.1 9.6-.1 5.4 4 9.6 9.1 9.6zM321.8 107.7c0-1.6-.8-2.6-1.8-3.3-1-.7-2.1-1-2.6-1.1-.1 0-.1-.1-.2-.1h-5.4v8.7c0 .4-.3.8-.8.8-.4 0-.8-.3-.8-.8V91.4c0-.4.3-.7.7-.8h6.3c3.5 0 6.3 2.8 6.3 6.3 0 2.5-1.5 4.7-3.6 5.7.1.1.2.1.3.2 1.5.8 3 2.4 3 4.9 0 1.3.1 2.1.3 2.6.1.4.3.5.3.5.3 0 .7.2.9.5.1.4-.1.9-.5 1h-.5c-.4 0-1.1-.3-1.4-1-.3-.7-.5-1.7-.5-3.6zm-4.5-15.6h-5.5v9.5h5.6c2.6-.1 4.6-2.2 4.6-4.8.1-2.5-2-4.7-4.7-4.7zM335.8 108.5c.3-.3.7-.3 1-.1 1.6 1.3 4.4 2.9 7.3 2.8 1.9 0 3.7-.6 4.9-1.5 1.2-.9 1.9-2 1.9-3.3 0-1.3-.6-2.2-1.8-3-1.2-.8-3-1.4-5.1-1.8h-.1c-2-.4-3.8-.9-5.2-1.9-1.4-.9-2.3-2.2-2.3-3.8 0-1.7.9-3.1 2.3-4.1 1.4-1 3.2-1.6 5.3-1.6 2.9 0 5.1 1.4 6.8 2.6.3.2.4.6.2 1-.2.3-.6.4-.9.2-1.7-1.1-3.6-2.3-6.1-2.3-1.8 0-3.4.5-4.5 1.3s-1.7 1.9-1.7 3 .5 1.9 1.6 2.7c1.1.8 2.7 1.3 4.7 1.7h.1c2.2.4 4.2 1 5.6 2 1.5.9 2.4 2.4 2.4 4.2 0 1.8-1 3.3-2.5 4.4-1.5 1.1-3.5 1.7-5.7 1.7-3.4 0-6.3-1.7-8.1-3.2-.3-.2-.3-.7-.1-1z"/></g><g fill="#fff"><path d="M426.2 57.9c0-.3.3-.6.6-.6s.6.3.6.6v.6c0 .3-.3.6-.6.6s-.6-.3-.6-.6v-.6zm0 4c0-.3.3-.6.6-.6s.6.2.6.6v11c0 .3-.3.6-.6.6s-.6-.3-.6-.6v-11zM443 66.2c0-2.1-1.7-3.7-3.7-3.7-2.1 0-3.7 1.7-3.8 3.7V72.9c0 .1 0 .2-.1.3-.1.1-.3.2-.4.2h-.1c-.2 0-.3-.2-.4-.3V61.9c0-.3.2-.6.6-.6.3 0 .6.3.6.6v1.2c.9-1.1 2.3-1.8 3.8-1.8 2.7 0 4.9 2.2 4.9 4.9v6.6c0 .3-.3.6-.6.6s-.6-.2-.6-.6v-6.6zM449.9 67.3c0-3.4 2.8-6 6.2-6 1.4 0 2.8.5 3.9 1.3.2.2.3.5.1.8-.2.2-.5.3-.8.1-.9-.7-2-1.1-3.1-1.1-2.8 0-5.1 2.2-5.1 4.9s2.2 4.9 5.1 4.9c1.2 0 2.3-.4 3.1-1.1.3-.2.6-.1.8.1.2.3.2.6-.1.9-1 .8-2.4 1.3-3.8 1.3-3.5 0-6.3-2.7-6.3-6.1zM467.1 70.9c.7 0 1.2.5 1.2 1.2s-.5 1.2-1.2 1.2-1.2-.5-1.2-1.2c0-.6.5-1.2 1.2-1.2z"/></g><g fill="#fff"><path d="M109.1 43.7c0-8.6-6.9-15.6-15.6-15.6-8.6 0-15.5 7-15.7 15.6v28c-.1.4-.2.8-.5 1.1-.4.6-1.1.9-1.9.9h-.6c-.7-.2-1.3-.7-1.7-1.3-.1-.1-.1-.2-.1-.3 0-.1-.1-.2-.1-.2V25.6c0-1.3 1-2.5 2.5-2.5 1.3 0 2.4 1.1 2.4 2.5v4.9c3.7-4.5 9.4-7.4 15.7-7.4 11.4 0 20.6 9.3 20.6 20.6v27.6c0 1.5-1.1 2.5-2.5 2.5-1.3 0-2.5-1-2.5-2.5V43.7zM152.6 73.4c-.3-.3-.6-.6-.8-1.1l-19.1-45.4c-.5-1.2.1-2.7 1.2-3.2 1.2-.5 2.8.1 3.2 1.3L154 65l16.9-40c.4-1.2 2-1.9 3.2-1.3 1.2.5 1.8 2 1.2 3.2l-19 45c-.1.4-.3.8-.6 1.2-.4.5-1.1.7-1.7.7-.3 0-.5 0-.8-.1-.1 0-.1 0-.2-.1-.1 0-.2-.1-.4-.2zM196.7 8.9c0-1.3 1.1-2.5 2.5-2.5 1.5 0 2.6 1.1 2.6 2.5v2.4c0 1.5-1.1 2.7-2.6 2.7-1.3 0-2.5-1.2-2.5-2.7V8.9zm0 16.6c0-1.5 1.1-2.5 2.5-2.5 1.5 0 2.6 1 2.6 2.5v45.8c0 1.3-1.1 2.5-2.6 2.5-1.3 0-2.5-1.1-2.5-2.5V25.5zM222.2 63.2c.8-1 2.4-1.2 3.5-.3 3.5 2.6 9.1 5.9 15.5 5.9 3.9 0 7.4-1.2 9.6-3.1 2.5-1.7 3.8-3.9 3.8-6.2-.1-2.4-1-4-3.6-6.2-2.2-1.7-5.8-2.9-10.8-3.7l-.2-.1c-4.6-.8-8.6-1.9-11.5-3.9-3.2-1.9-5.5-5.2-5.5-9.1 0-4 2.3-7.6 5.5-9.9 3-2.1 7.3-3.4 12.4-3.4 6.5 0 11.2 3 15.1 5.5 1.1.8 1.5 2.4.7 3.5-.7 1.1-2.3 1.5-3.4.7-3.7-2.5-7.5-5.1-12.4-5.1-4.1 0-7.5 1.1-9.6 2.9-2.1 1.7-3.2 3.7-3.2 5.8 0 2.1.9 3.5 2.9 5.1 2.3 1.6 5.7 2.8 10.4 3.5h.2c4.9.7 8.8 2.2 12.3 4.1 3.3 2.2 5.7 6.1 5.7 10.4 0 4.2-2.4 7.7-5.8 10.3-3.5 2.6-7.7 4-12.6 4-8.2-.1-14.6-3.9-18.8-7.3-.9-1-1-2.3-.2-3.4zM276.8 8.9c0-1.3 1.1-2.5 2.5-2.5 1.5 0 2.6 1.1 2.6 2.5v2.4c0 1.5-1.1 2.7-2.6 2.7-1.3 0-2.5-1.2-2.5-2.7V8.9zm0 16.6c0-1.5 1.1-2.5 2.5-2.5 1.5 0 2.6 1 2.6 2.5v45.8c0 1.3-1.1 2.5-2.6 2.5-1.3 0-2.5-1.1-2.5-2.5V25.5zM327.5 23c13.4 0 24 11.6 24 25.4 0 13.8-10.7 25.4-24 25.4s-24-11.6-24-25.4c-.1-13.8 10.7-25.4 24-25.4zm0 45.8c10.4 0 19.1-9.1 19.1-20.4s-8.7-20.5-19.1-20.5c-10.4 0-19.1 9.2-19.1 20.5s8.7 20.4 19.1 20.4zM406.8 43.7c0-8.6-6.9-15.6-15.6-15.6-8.6 0-15.5 7-15.7 15.6v28c-.1.4-.2.8-.5 1.1-.4.6-1.1.9-1.9.9h-.6c-.7-.2-1.3-.7-1.7-1.3-.1-.1-.1-.2-.1-.3 0-.1-.1-.2-.1-.2V25.6c0-1.3 1-2.5 2.5-2.5 1.3 0 2.4 1.1 2.4 2.5v4.9c3.7-4.5 9.4-7.4 15.7-7.4 11.4 0 20.6 9.3 20.6 20.6v27.6c0 1.5-1.1 2.5-2.5 2.5-1.3 0-2.5-1-2.5-2.5V43.7z"/></g><path fill="#fff" d="M7.5 47.7c0-13.1 10.2-23.6 22.9-23.6 12 0 21.6 9.6 22.6 21.9v.4c0 1.2-1.1 2.1-2.3 2.1H12.1c.5 10.3 8.6 18.1 18.3 18.1 6.2 0 12-3.3 15.2-8.6.7-1.2 2.1-1.3 3.1-.8 1.1.8 1.4 2.1.8 3.3-4 6.4-11 10.7-19 10.7-12.9 0-23-10.6-23-23.5zm4.9-3.7H48c-1.5-8.8-9-15.3-17.7-15.3-8.8 0-16.2 6.3-17.9 15.3z"/></svg>