<svg xmlns="http://www.w3.org/2000/svg" viewBox="0 469.3 288 69.4" enable-background="new 0 469.3 288 69.4"><g fill="#fff"><path d="M36.9 496.9v25.8c0 1.8-.1 1.8-1.8 1.8H2.7c-1.8 0-1.8-.1-1.9-1.5-.2-8-.5-16-.6-24-.1-6.1-.1-12.3 0-18.4 0-1.7.1-1.6 1.7-2.1 9.6-2.6 19.1-5.3 28.8-7.9 1.7-.5 3.5-.9 5.2-1.3.7-.2 1.2.1 1.2.9v2.1c-.2 8.3-.2 16.4-.2 24.6zM20 498.7h11.4c1 0 1.2-.4 1.2-1.3-.1-.4.1-.9-.1-1.2-1.9-5.3-4.4-9.9-10.7-11.2-5-1-10.9 1-13.8 5.2-2.3 3.4-3.3 6.9-2.5 11 .6 3.1 2 5.8 4.1 7.9 2.8 2.7 6.4 4.2 10.5 3.7 4.3-.5 7.6-2.5 9.9-6.1.2-.4.9-1 0-1.5-.7-.4-1.2-.6-1.8.2-.4.7-1 1.3-1.5 2-2.9 3.5-7 3.6-10.9 2.9-4.5-.8-7.8-5.2-8.4-10-.1-1.1.1-1.5 1.3-1.5 3.7-.1 7.6-.1 11.3-.1zM215.9 499.5c.2 5.8-2.3 10.4-7.2 13.4-2.9 1.8-6.1 2.8-9.9 2-6.3-1.3-9.9-5-12-10.6-2.1-6.1-.6-11.6 3.4-16.2 2.5-2.9 6-4.7 10.1-4.7 2.3 0 4.7.1 6.7 1.2 5.3 2.9 8.6 7.1 8.8 13.4.1.5.1 1 .1 1.5zm-3.6-.9c.2-2.5-.9-5.1-2.9-7.5-2.8-3.3-7.2-5-11.3-3.7-4.4 1.3-6.7 4.5-8 8.7-.3 1.2-.7 2.4-.6 3.5.6 3.6 1.7 7.1 4.9 9.3 3.5 2.5 7 3.4 10.9 1.4 4.6-2.3 7-6 7-11.7zM44.8 499v-13.2c0-.6 0-1.3.3-1.8.6-1.1 2.3-.9 2.9.2.2.4.4.9.5 1.4.1.6.3.6.8.4 1.3-.7 2.6-1.6 4-2 8-2.5 15.1 2 17.3 9.8.1.4.1.8.1 1.2v18.1c0 .9-.3 1.4-1.1 1.9-.9.6-1.3-.1-1.9-.2-.8-.2-.7-.9-.7-1.5v-9.8c0-2.3-.1-4.7 0-7.1.3-5-5.9-11.5-12.8-8.6-3.4 1.3-5.6 4.6-5.6 8.2 0 5.4-.1 10.9 0 16.3 0 1.2-.3 2.2-1.3 2.9-.9.7-2.1.2-2.4-1-.1-.6-.1-1.2-.1-1.8V499zM148 483.5c3.3-.6 5.9 1.3 8.7 2.6.4.2.6.5.9.8.7.8.8 2 .2 2.8-.7.9-1.7.7-2.5.3-.6-.3-1.2-.7-1.8-1.2-2.3-1.6-4.8-2-7.5-1.7-1.9.3-3.7 1-4.8 2.8-1.1 1.6-.6 3.8 1.2 4.9 1.1.7 2.3 1.1 3.6 1.5 2.6.8 5.3.8 7.9 1.9 2 .9 3.7 1.7 4.9 3.7 1.5 2.8 1.6 6.3-.4 8.6-2.6 3.1-6.1 4.7-10 4.7-3.7 0-7.2-1.4-10.4-3.4-.5-.3-.9-.8-1.3-1.3-.7-.9-.7-2.1 0-2.8.7-.7 1.5-.6 2.2 0 .5.4 1 .6 1.5 1 2.4 1.6 5 2.4 7.9 2.8.9.1 2-.2 2.9-.6 1.9-.9 3.9-1.7 4.8-3.9.3-.7.4-1.2 0-1.9-1.3-2.7-3.7-3.9-6.4-4.5-1.9-.5-3.9-.7-5.8-1.3-1.2-.4-2.4-.9-3.5-1.6-2.7-1.5-3.6-3.8-3.3-6.6.2-2.6 1.5-4.7 3.9-6.1 2.1-1.2 4.5-1.9 7.1-1.5zM227.5 498.9v-14.1c0-.6-.2-1.2.7-1.4 1-.2 2 .2 2.3 1 .3.7-.5 2 .6 2.3.4.1 1.2-1 1.8-1.4 4.8-2.7 9.7-2.8 14.4.1 3.7 2.3 5.9 5.8 6 10.3.1 5.6 0 11.2.1 16.9 0 .9-.2 1.6-.9 2.1-.5.4-.9.9-1.5.4-.5-.4-1.3-.4-1.3-1.4.1-2.1 0-4.3 0-6.4v-10.4c0-4.9-3.4-8.2-7.1-9.5-3.3-1.2-8.2.9-10 4.1-1.2 2.1-2 4.4-1.9 6.9.1 4.8.1 9.6.1 14.4 0 2-.5 2.8-1.7 2.7-1-.1-1.5-.8-1.5-2.6-.1-4.8-.1-9.4-.1-14zM108 486.5c-.1.2-.2.8-.4 1.3-2.6 6.1-5.2 12.1-7.9 18.2-1.1 2.6-2.2 5.2-3.3 7.7-.3.8-.7 1.7-1.6 1.5-.8-.2-1.7-.9-2.1-1.5-1.2-2.3-2-4.8-3-7.2-1.5-3.5-2.9-7.1-4.4-10.5-1.3-3.1-2.7-6.3-4-9.4-.6-1.3 0-2.8 1.3-3.1.5-.1 1.2.2 1.6.6.5.6.8 1.4 1.1 2.1 2.5 5.9 4.9 11.8 7.4 17.7.2.4.4.7.6 1.1.5.9.9 1.8 1.4 2.7.6-.9 1.2-1.8 1.6-2.7 1.5-3.5 2.9-7.1 4.4-10.5 1.2-2.9 2.5-5.7 3.7-8.6.2-.5.4-.9.7-1.3.4-.8 1.1-1.4 2-1 .5.2.8 1 1.1 1.7-.1.1-.2.4-.2 1.2zM169.9 499.3v-13.7c0-1.7.7-2.3 2.1-2.2.9.1 1.5.6 1.5 1.5v27.2c0 .9 0 1.8-.9 2.5-.6.5-1.2.9-1.9.5-.4-.3-.8-.9-.9-1.4-.2-.6-.1-1.2-.1-1.8.2-4.2.2-8.4.2-12.6zM124.6 499.4v12.8c0 1.1-.2 2-1.1 2.6-1 .8-2.3.4-2.6-.9-.1-.5-.1-1-.1-1.5v-26.2c0-.5-.1-1 .1-1.5.1-.8.7-1.2 1.5-1.3.7-.1 1.5-.1 1.7.9.2.9.5 1.7.5 2.6v12.5zM169.9 531.4c-.2-1.7.3-3.3 1.8-4.7 1.3-1.3 3.1-2.1 4.8-2.1 3.4-.1 6.9 3.6 6.8 7.1-.1 1.8-.7 3.7-2.1 5.2-1.4 1.5-3.1 1.8-5 1.8-4.3-.2-6.3-2.3-6.3-7.3zm11.7.8c0-3.9-1.7-5.9-5.1-5.9-3 0-5.3 2.5-5.3 5.6 0 2.7 2.5 5.3 5.1 5.5 1.5.1 2.6-.7 3.7-1.7 1-1.1 2-2.1 1.6-3.5zM190.2 531.8v-5.5c0-.9.4-1.3 1.2-1.2 1.4.1 2.9-.1 4.3.1 2.1.2 2.9 1.2 3.1 3 .1 1.3.4 2.6-.8 3.7-.2.2-.3.9-.1 1 1.3 1 .9 2.4 1 3.7 0 .3.2.6.3.9.2.5.5 1-.3 1.1-.4 0-.9-.4-1.1-.8-.2-.3-.1-.8-.2-1.2-.4-2.8-2.3-4-4.8-3.3-.2.1-.6.6-.6.9-.1 1.2 0 2.5-.1 3.7-.1.3-.6.6-.9.9-.3-.3-.6-.6-.9-1-.1-.1 0-.2 0-.3-.1-2-.1-3.8-.1-5.7zm1.8-2.9c-.1 3.1.3 3.6 2.9 2.9.8-.2 1.5-1 2.1-1.6.8-.9.6-2-.2-3-1.2-1.4-2.8-.7-4.3-.7-.2 0-.4.4-.5.7v1.7zM104.3 532v5.5c0 .4-.3.7-.4 1-.4-.2-.8-.2-1-.5-.4-.4-.7-1-1-1.5-1.8-2.5-3.6-5.1-5.5-7.6-.1-.2-.3-.3-.5-.5-.1.2-.1.4-.2.6v7.4c0 .6-.1 1.2-.1 1.8 0 .1-.3.2-.5.2s-.4-.1-.5-.2c-.1-.1-.1-.4-.1-.6v-11.7c0-.2.2-.8.3-.8.4 0 .8.1 1 .3.4.3.7.7 1 1.1 1.8 2.6 3.7 5.3 5.5 7.9.2.2.3.5.4.7.1-.3.2-.6.2-.9v-6.7c0-.6-.1-1.2.1-1.8.1-.3.4-.5.7-.7.2.2.4.4.4.7.1 1.5.1 3.1.1 4.6.1.7.1 1.2.1 1.7zM144.1 532v-5.8c0-.7.3-1.1 1.1-1.1h3.7c3 .1 4.8 2.6 3.6 5.3-.7 1.5-.7 2.7.1 4.1.4.7.3 1.7.4 2.6.1.4.1.9.1 1.3-.5-.3-1.1-.5-1.3-.9-.2-.4-.1-1-.1-1.5-.2-1.6-1.7-3-3.2-3-3.3 0-2.8-.3-2.9 2.6-.1.9.5 2.6-.5 2.6-1.4-.1-.6-1.7-.7-2.7-.3-1.1-.3-2.3-.3-3.5zm1.3-2.2c.1.2.1 1.7.4 1.8 1 .3 2.1.1 3.3-.1.5-.1.9-.4 1.3-.7 1.5-1.2 1.5-2.9-.2-3.9-.5-.3-1.1-.6-1.7-.6-3.8 0-3-.2-3.1 3.5zM211.2 538.6c-1.7.4-3.2-.5-4.7-1.3-.3-.2-.5-1-.3-1.3.2-.6.8-.4 1.2 0 1.2 1.1 2.6 1.3 4.2 1.5 1.8.1 2.6-1 3.5-2.1.1-.2.2-.7.1-.8-.9-.9-1.4-1.9-2.8-2.1-1.5-.2-2.9-.8-4.2-1.5-1.1-.6-2-1.8-1.8-2.9.2-1.3 1-2.5 2.6-3 2.8-.9 5.1-.6 6.6 1.2.2.2.1.7.2 1-.2 0-.6.1-.8 0-.5-.2-.9-.4-1.3-.7-1.6-1.2-3.1-.9-4.7.2-1.1.8-1.3 2.1-.2 2.9.7.4 1.5.6 2.2.9 1.1.4 2.3.6 3.4 1.1 2 .9 2.5 1.8 2.3 3.4-.2 1.8-1.5 3.1-3.3 3.4-.8.2-1.4.1-2.2.1zM129.4 531.8v-5.2c0-1 .2-1.5 1.3-1.5 1.7.1 3.5 0 5.2.1.6 0 1.3-.2 1.3.7 0 .2-.7.5-1.2.5-1.4.1-2.9.1-4.3 0-.7 0-1.2.3-1.1 1v.3c.1 4.2-.6 3.4 3.3 3.5.5 0 1-.1 1.5 0 .4.1.8.4 1.2.6-.4.2-.7.6-1.1.7-.6.1-1.2 0-1.8.1-1 .1-2 .2-2.9.3-.1 1.3-.1 2.6-.1 3.9 0 .2.6.6.9.6 1.7.1 3.3 0 4.9.1.2 0 .6.4.8.6-.3.2-.6.6-.9.6-2.1 0-4.3 0-6.4-.1-.2 0-.4-.2-.4-.4v-6.4h-.2zM116.9 525.2h4.6c.2 0 .5.4.5.6 0 .2-.3.4-.5.6-.2.1-.4.1-.6.1-3 .2-3 .2-3 3.1 0 2.8 0 5.7-.1 8.5 0 .2-.4.5-.6.5-.2 0-.6-.3-.6-.5-.1-2.5-.1-5.1-.1-7.6 0-1.2.4-2.8-.2-3.5-.6-.7-2.2-.4-3.4-.5-.2 0-.4.1-.6-.1-.2-.1-.5-.4-.5-.6 0-.2.3-.4.5-.6.1-.1.2-.1.3-.1 1.4 0 2.9 0 4.3.1 0-.1 0-.1 0 0zM266.2 510.5v-2.1c0-1.2 0-2.3 1.7-1.2.2.2.9-.4 1.3-.4 2-.4 3.6.9 3.7 2.9.1 1.4 0 2.8 0 4.3 0 .2-.3.4-.5.7-.2-.2-.7-.5-.7-.7-.1-.8-.1-1.6-.1-2.5 0-.5.1-1-.1-1.5-.2-.9-1.3-1.9-2.1-1.9-1 0-1.4.7-1.7 1.5-.2.7-.4 1.5-.5 2.3-.1.8-.1 1.7-.1 2.5 0 .1-.3.4-.4.3-.2-.1-.6-.2-.7-.4-.1-.2-.1-.6-.1-.9.3-1.1.3-2 .3-2.9zM280.6 514.7c-2.2 0-4-1-4.5-2.3-.5-1.3.2-3.9 1.2-4.8 1.3-1.2 3.6-1.2 5.1-.2.2.1.4.6.3.7-.1.2-.5.4-.7.4-.5-.1-.9-.4-1.4-.5-1.3-.2-2.8.8-3.2 2.1-.4 1.1.2 2.7 1.3 3 .9.2 1.9-.1 2.9-.1.4 0 .7.1 1 .1-.2.4-.3 1-.6 1.2-.6.4-1.3.4-1.4.4zM169.9 475c.1-.1.1-.9.5-1.3 1-1 2.9-.4 3.1 1.2.1.7 0 1.6-.2 2.3-.2.7-.6 1.5-1.7 1.3-1.1-.1-1.7-.6-1.7-1.7V475zM120.8 475.1c0-.2 0-.7.1-1.2.3-.9 1.4-1.3 2.2-.8 1.7 1 1.9 3.3.5 4.6-.6.6-1.2 1-1.8.5-.5-.4-.7-1.1-1-1.7v-1.4zM85.9 532.1v5.8c0 .2-.4.5-.6.5-.2 0-.6-.3-.6-.5-.1-3.3-.1-6.5-.1-9.8 0-.8 0-1.7.1-2.5 0-.2.4-.5.6-.5s.6.3.6.5v6.5zM160.7 531.5v-5.8c0-.2.4-.5.6-.5s.6.3.6.5c.1 3.4.1 6.9.1 10.4 0 .6 0 1.2-.1 1.8 0 .2-.4.5-.6.5s-.6-.3-.6-.5v-6.4zM262.6 511c-.1 1.1-.1 2.2-.2 3.3 0 .1-.3.2-.5.2s-.4-.1-.5-.2c-.1-.1-.1-.2-.1-.2v-6.7c0-.2.4-.5.6-.5s.6.3.6.5c.1 1.2 0 2.5 0 3.6h.1zM288 514.2c-.7.2-1.2.5-1.5.4-.3-.1-.7-.8-.6-1.1.1-.3.8-.6 1.1-.6.3.1.6.7 1 1.3zM262.8 505.3c-.4.3-.7.5-1 .7-.2-.3-.5-.6-.5-.9 0-.2.4-.5.6-.8.3.3.5.6.9 1zM18.8 496.9H8.4c-.6 0-1.1-.2-.9-.9 1.3-4 3.3-7.4 7.7-8.5 7.4-1.9 12.4.9 14.8 8.5.1.2-.3.8-.5.9-.6.1-1.2.1-1.8.1-3-.1-6-.1-8.9-.1z"/></g></svg>